<?xml version="1.0" encoding="utf-8"?>
<!-- Generator: Adobe Illustrator 19.0.0, SVG Export Plug-In . SVG Version: 6.00 Build 0)  -->
<svg version="1.1" id="bkg" xmlns="http://www.w3.org/2000/svg" xmlns:xlink="http://www.w3.org/1999/xlink" x="0px" y="0px"
	 viewBox="0 0 101.8 64.6" style="enable-background:new 0 0 101.8 64.6;" xml:space="preserve">
<style type="text/css">
	.st0{fill:#FFFFFF;}
</style>
<g>
	<g>
		<g>
			<g>
				<path class="st0" d="M96.2,26h-0.9v-0.9h0.9V26z M94.3,26h-0.9v-0.9h0.9V26z M92.4,26h-0.9v-0.9h0.9V26z M90.5,26h-0.9v-0.9h0.9
					V26z M88.6,26h-0.9v-0.9h0.9V26z M86.7,26h-0.9v-0.9h0.9V26z M84.8,26h-0.9v-0.9h0.9V26z M82.9,26H82v-0.9h0.9V26z M81,26h-0.9
					v-0.9H81V26z M79.1,26h-0.9v-0.9h0.9V26z M77.2,26h-0.9v-0.9h0.9V26z M75.4,26h-0.9v-0.9h0.9V26z M73.5,26h-0.9v-0.9h0.9V26z
					 M71.6,26h-0.9v-0.9h0.9V26z M69.7,26h-0.9v-0.9h0.9V26z M67.8,26h-0.9v-0.9h0.9V26z M65.9,26h-0.9v-0.9h0.9V26z M64,26H63v-0.9
					H64V26z M62.1,26h-0.9v-0.9h0.9V26z M60.2,26h-0.9v-0.9h0.9V26z M58.3,26h-0.9v-0.9h0.9V26z M45.1,26h-0.9v-0.9h0.9V26z
					 M43.2,26h-0.9v-0.9h0.9V26z M41.3,26h-0.9v-0.9h0.9V26z M39.4,26h-0.9v-0.9h0.9V26z M37.5,26h-0.9v-0.9h0.9V26z M35.6,26h-0.9
					v-0.9h0.9V26z M33.7,26h-0.9v-0.9h0.9V26z M31.8,26h-0.9v-0.9h0.9V26z M29.9,26H29v-0.9h0.9V26z M28,26h-0.9v-0.9H28V26z
					 M26.1,26h-0.9v-0.9h0.9V26z M24.2,26h-0.9v-0.9h0.9V26z M22.3,26h-0.9v-0.9h0.9V26z M20.4,26h-0.9v-0.9h0.9V26z M18.5,26h-0.9
					v-0.9h0.9V26z M16.6,26h-0.9v-0.9h0.9V26z M14.8,26h-0.9v-0.9h0.9V26z M12.9,26h-0.9v-0.9h0.9V26z M11,26H10v-0.9H11V26z
					 M9.1,26H8.1v-0.9h0.9V26z M7.2,26H6.2v-0.9h0.9V26z"/>
			</g>
		</g>
	</g>
	<g>
		<g>
			<path class="st0" d="M16.7,40.1c0,1.1,0,1.7,0,2.8c-2.2,0.2-3.4,0.3-5.6,0.6c0,4,0,5.9,0,9.9c-1.2,0.2-1.8,0.3-3,0.6
				c0-8.3,0-12.4,0-20.7c0.5-0.3,0.8-0.5,1.3-0.8c0-0.1,0-0.1,0-0.2c-1.2,0-1.8,0-3,0.1c0-1.2,0-1.8,0-3c4.8,0,7.2,0,12,0
				c0,2.2,0,3.2,0,5.4c-1.2,0-1.8,0.1-3,0.1c0-1.1,0-1.6,0-2.7c-1.7,0-2.5,0.1-4.2,0.1c0,3.3,0,5,0,8.3
				C13.3,40.4,14.4,40.3,16.7,40.1z"/>
			<path class="st0" d="M18.5,52.2c0-1,0-1.5,0-2.5c1.1-0.1,1.6-0.2,2.7-0.3c0-6.7,0-10,0.1-16.7c0.5-0.3,0.8-0.4,1.3-0.7
				c0-0.1,0-0.1,0-0.2c-1.5,0-2.2,0-3.7,0.1c0-1,0-1.5,0-2.5c3.1,0,4.7,0,7.8,0c0,1,0,1.5,0,2.4c-0.9,0-1.4,0-2.3,0
				c0,6.9,0,10.4-0.1,17.3c1.1-0.1,1.6-0.2,2.7-0.3c0,1,0,1.5,0,2.4C23.6,51.4,21.9,51.7,18.5,52.2z"/>
			<path class="st0" d="M32.7,31.5c-1.1,0-1.6,0-2.7,0c-0.1,0.9-0.1,1.4-0.1,2.3c-1,0-1.5,0-2.5,0.1c0-1.9,0-2.8,0-4.7
				c5.5,0,8.3,0,13.8,0c0,1.8,0,2.7,0,4.5c-1,0-1.5,0-2.5,0c0-0.9-0.1-1.3-0.1-2.2c-1.1,0-1.7,0-2.8,0c0,7.5,0,11.3-0.1,18.8
				c-1.2,0.1-1.8,0.1-3.1,0.2C32.6,42.9,32.6,39.1,32.7,31.5z"/>
			<path class="st0" d="M41.7,29.3c2.4,0,3.6,0,5.9,0c1.1,2.9,1.7,4.4,2.8,7.4c1.1,3.4,1.7,5.1,2.8,8.6c0,0,0.1,0,0.1,0
				c-0.3-3.5-0.4-5.2-0.7-8.7c0-2.9,0-4.3,0-7.2c1.2,0,1.8,0,3,0c0,8.2,0,12.3,0,20.5c-1.3,0-2,0-3.3,0c-1.6-4-2.4-6.1-3.9-10.1
				c-0.9-2.7-1.4-4-2.3-6.7c0,0-0.1,0-0.1,0c0.2,2.8,0.2,4.2,0.4,7c0,4,0,5.9,0,9.9c-1.2,0-1.8,0-3,0.1c0-6.9,0-10.4,0-17.3
				c0.5-0.3,0.8-0.4,1.3-0.6c0-0.1,0-0.1,0-0.2c-1.2,0-1.8,0-3.1,0C41.7,30.8,41.7,30.3,41.7,29.3z"/>
			<path class="st0" d="M67.3,38.6c0,1,0,1.5,0,2.6c-2.3-0.1-3.4-0.1-5.7-0.2c0,2.6,0,3.9,0,6.5c1.8,0.1,2.7,0.1,4.5,0.2
				c0-0.9,0-1.3,0-2.2c1.2,0.1,1.8,0.1,3.1,0.2c0,1.9,0,2.9,0,4.8c-4.2-0.3-6.4-0.5-10.6-0.6c0-6.9,0-10.4,0-17.3
				c0.5-0.2,0.8-0.4,1.3-0.6c0-0.1,0-0.1,0-0.2c-1.2,0-1.8,0-3,0c0-1,0-1.5,0-2.5c4.8,0,7.2,0,12.1,0c0,2,0,3,0,5
				c-1.2,0-1.8,0-3.1-0.1c0-1,0-1.4,0-2.4c-1.7,0-2.5,0-4.2,0c0,2.7,0,4,0,6.7C63.9,38.5,65.1,38.5,67.3,38.6z"/>
			<path class="st0" d="M73.6,46.6c0.8,0.8,1.2,1.2,2,2c0.9,0.1,1.3,0.1,2.2,0.2c0.8-0.6,1.2-1,2-1.6c0-1.4,0-2.1,0-3.6
				c-3.6-2.5-5.4-3.7-9-6c0-2.1,0-3.2,0-5.4c1.4-1.3,2.1-1.9,3.6-3.2c1.9,0,2.8,0,4.7,0c1.4,1.3,2.2,2,3.6,3.4c0,1.4,0,2.1,0,3.5
				c-1.2,0-1.8-0.1-3-0.1c0-0.9,0-1.4,0-2.3c-0.8-0.7-1.1-1.1-1.9-1.8c-0.8,0-1.3,0-2.1,0c-0.7,0.7-1.1,1-1.8,1.7c0,1.2,0,1.8,0,3
				c3.6,2.3,5.4,3.5,9,6.1c0,2.5,0,3.7,0,6.1c-1.5,1.2-2.2,1.8-3.7,3c-1.9-0.2-2.9-0.4-4.8-0.6c-1.5-1.5-2.2-2.2-3.7-3.7
				c0-1.6,0-2.3,0-3.9c1.2,0.1,1.8,0.1,3,0.2C73.6,44.9,73.6,45.5,73.6,46.6z"/>
			<path class="st0" d="M87.1,48.1c0.8,0.9,1.2,1.3,2,2.2c0.9,0.1,1.3,0.2,2.2,0.3c0.8-0.7,1.2-1,2-1.7c0-1.6,0-2.3,0-3.9
				c-3.6-2.9-5.4-4.2-9-6.8c0-2.3,0-3.5,0-5.8c1.4-1.3,2.1-2,3.6-3.4c1.9,0,2.8,0,4.7,0c1.4,1.5,2.2,2.2,3.6,3.7c0,1.5,0,2.3,0,3.8
				c-1.2-0.1-1.8-0.1-3-0.2c0-1,0-1.5,0-2.5c-0.8-0.8-1.1-1.2-1.9-2c-0.8,0-1.3,0-2.1,0c-0.7,0.7-1.1,1.1-1.8,1.8c0,1.3,0,2,0,3.3
				c3.6,2.6,5.4,3.9,9,6.9c0,2.7,0,4.1,0,6.8c-1.5,1.3-2.2,1.9-3.7,3.2c-1.9-0.4-2.9-0.5-4.8-0.8c-1.5-1.7-2.2-2.5-3.7-4.1
				c0-1.7,0-2.5,0-4.2c1.2,0.1,1.8,0.2,3,0.3C87.1,46.2,87.1,46.8,87.1,48.1z"/>
		</g>
	</g>
	<path class="st0" d="M77.6,16.9c0-0.1-0.1-0.1-0.2-0.2c-0.1-0.1-0.1-0.1-0.2-0.1c-0.1,0-0.2,0-0.3,0c-0.3,0.4-0.6,0.8-0.9,1.2
		c-0.3,0.3-0.6,0.6-0.8,0.8c-0.2,0.2-0.5,0.4-0.6,0.5c-0.2,0.1-0.3,0.2-0.4,0.2c-0.1,0-0.1,0-0.2-0.1c0,0-0.1-0.1-0.1-0.2
		c0-0.1,0-0.2,0-0.3c0-0.1,0.1-0.3,0.1-0.4c0.1-0.2,0.1-0.3,0.2-0.5c0.1-0.2,0.1-0.4,0.2-0.6c0.1-0.2,0.1-0.4,0.2-0.5
		c0.1-0.2,0.1-0.3,0.2-0.5c0.1-0.4,0.3-0.7,0.3-1c0.1-0.3,0.1-0.6,0.1-0.9c0-0.2,0-0.3-0.1-0.5c0-0.1-0.1-0.3-0.2-0.4
		c-0.1-0.1-0.2-0.2-0.3-0.2c-0.1-0.1-0.3-0.1-0.5-0.1c-0.4,0-0.8,0.2-1.4,0.5c-0.6,0.3-1.2,0.8-1.9,1.4l0.5-1.8
		c0.4-0.6,0.7-1.1,0.9-1.6c0.2-0.5,0.4-0.9,0.6-1.2c0.1-0.3,0.2-0.6,0.3-0.9c0.1-0.3,0.1-0.5,0.1-0.7c0-0.2,0-0.4-0.1-0.6
		C73.2,8,73.1,7.9,73,7.8c-0.1-0.1-0.2-0.2-0.4-0.2c-0.2,0-0.3-0.1-0.5-0.1c-0.4,0-0.8,0.1-1.1,0.3c-0.3,0.2-0.6,0.4-0.9,0.8
		c-0.3,0.3-0.5,0.8-0.7,1.3c-0.2,0.5-0.4,1.2-0.5,1.9c-0.2,0.7-0.3,1.6-0.4,2.5c-0.1,0.7-0.2,1.5-0.3,2.3c-0.3,0.4-0.6,0.8-0.9,1.1
		c-0.3,0.3-0.6,0.6-0.9,0.9c-0.3,0.2-0.6,0.4-0.8,0.5c-0.3,0.1-0.5,0.2-0.7,0.2c-0.2,0-0.3-0.1-0.4-0.2c-0.1-0.1-0.1-0.3-0.1-0.5
		c0-0.1,0-0.2,0-0.4c0-0.2,0.1-0.4,0.1-0.7c0.1-0.3,0.1-0.6,0.2-1c0.1-0.4,0.2-0.9,0.3-1.4c0.1,0,0.3,0,0.4,0.1c0.1,0,0.2,0,0.3,0
		c0.1,0,0.2,0,0.3,0c0.1,0,0.2,0,0.3,0c0.2,0,0.3,0,0.4-0.1c0.1-0.1,0.2-0.2,0.3-0.3c0.1-0.1,0.2-0.2,0.2-0.4
		c0.1-0.2,0.1-0.3,0.1-0.5c0-0.1,0-0.1,0-0.2c0-0.1,0-0.1-0.1-0.2c0-0.1-0.1-0.1-0.1-0.2c0-0.1-0.1-0.1-0.2-0.2c-0.1,0-0.2,0-0.3,0
		c-0.1,0-0.3,0-0.4,0c-0.2,0-0.3,0-0.5,0c-0.2,0-0.3,0-0.5,0c0.2-0.3,0.3-0.6,0.4-0.9c0.1-0.3,0.2-0.5,0.3-0.7
		c0.1-0.2,0.2-0.4,0.2-0.5c0.1-0.1,0.1-0.3,0.1-0.4c0-0.1,0.1-0.2,0.1-0.3c0-0.1,0-0.2,0-0.3c0-0.2,0-0.4-0.1-0.5
		c-0.1-0.1-0.1-0.3-0.2-0.3c-0.1-0.1-0.2-0.2-0.4-0.2c-0.2,0-0.3-0.1-0.6-0.1c-0.3,0-0.6,0.1-0.9,0.2C64.3,9.5,64,9.7,63.8,10
		c-0.2,0.3-0.4,0.6-0.5,0.9c-0.1,0.4-0.2,0.7-0.3,1.2c0,0.2,0,0.3,0,0.5c0,0.1,0,0.2,0,0.4c0,0.1,0,0.2,0,0.3c0,0.1,0,0.2,0,0.3
		c-0.2,0-0.4,0-0.5,0.1c-0.1,0.1-0.3,0.1-0.4,0.3c-0.1,0.1-0.2,0.2-0.2,0.4c-0.1,0.1-0.1,0.3-0.1,0.4c0,0.1,0,0.2,0.1,0.2
		c0,0.1,0.1,0.1,0.2,0.1C62,15,62,15,62.1,15c0.1,0,0.2,0,0.3,0c-0.2,0.6-0.3,1.1-0.4,1.5c-0.2,0.4-0.5,0.7-0.8,1.1
		c-0.3,0.3-0.5,0.6-0.7,0.8c-0.2,0.2-0.5,0.4-0.7,0.5c-0.2,0.1-0.4,0.2-0.5,0.2c-0.1,0-0.2,0-0.2-0.1c0,0-0.1-0.1-0.1-0.2
		c0-0.1,0-0.2,0-0.3c0-0.1,0.1-0.3,0.1-0.5c0-0.2,0.1-0.4,0.2-0.7c0.1-0.3,0.1-0.5,0.2-0.8c0.1-0.3,0.1-0.6,0.2-0.9
		c0.1-0.3,0.2-0.6,0.2-0.9c0.1-0.3,0.2-0.6,0.2-0.8c0.1-0.3,0.1-0.5,0.2-0.7c0.2-0.4,0.4-0.8,0.6-1.2c0.2-0.4,0.3-0.7,0.5-1
		c0.1-0.3,0.2-0.5,0.3-0.8c0.1-0.2,0.2-0.4,0.2-0.6c0.1-0.2,0.1-0.3,0.1-0.5c0-0.1,0-0.3,0-0.4c0-0.2,0-0.4-0.1-0.6
		C62.1,8,62,7.9,61.9,7.8c-0.1-0.1-0.3-0.2-0.4-0.2c-0.2,0-0.3-0.1-0.5-0.1c-0.4,0-0.7,0.1-1.1,0.3c-0.3,0.2-0.7,0.5-0.9,0.8
		c-0.3,0.4-0.5,0.8-0.7,1.3c-0.2,0.5-0.3,1.1-0.4,1.7c0,0.3-0.1,0.7-0.2,1c-0.1,0.4-0.1,0.7-0.2,1.1c-0.1,0.4-0.1,0.8-0.2,1.1
		c-0.1,0.4-0.1,0.7-0.2,1c0,0.1-0.1,0.3-0.1,0.5c0,0.2-0.1,0.4-0.2,0.7c0,0,0,0.1,0,0.1c-0.2,0.2-0.3,0.4-0.4,0.5
		c-0.3,0.3-0.5,0.6-0.7,0.8c-0.2,0.2-0.4,0.3-0.6,0.4c-0.2,0.1-0.3,0.1-0.4,0.1c0,0-0.1,0-0.1,0c0,0-0.1,0-0.1-0.1c0,0,0-0.1,0-0.1
		c0-0.1,0-0.1,0-0.2c0-0.1,0-0.3,0-0.5c0-0.2,0.1-0.5,0.2-0.8c0.1-0.3,0.2-0.7,0.3-1.2c0.1-0.5,0.3-1,0.4-1.6
		c0.1-0.3,0.1-0.5,0.2-0.7c0-0.2,0-0.4,0-0.5c0-0.2,0-0.3-0.1-0.5c-0.1-0.2-0.2-0.3-0.4-0.5c-0.2-0.1-0.4-0.3-0.6-0.4
		c-0.2-0.1-0.5-0.1-0.9-0.1c-0.1,0-0.3,0-0.4,0.1c-0.1,0-0.2,0.1-0.3,0.2L52.7,13c0,0-0.1-0.1-0.2-0.1c-0.1,0-0.2,0-0.3,0
		c-0.3,0-0.6,0.1-1,0.2c-0.3,0.2-0.7,0.4-1,0.6c-0.3,0.3-0.6,0.6-0.9,1c-0.3,0.4-0.5,0.8-0.7,1.2c-0.2,0.4-0.4,0.9-0.5,1.3
		c-0.1,0.1-0.2,0.2-0.3,0.3c-0.3,0.3-0.7,0.6-1,0.9c-0.4,0.2-0.7,0.4-1.1,0.6c-0.4,0.1-0.7,0.2-1,0.2c-0.2,0-0.3,0-0.5-0.1
		c-0.1-0.1-0.2-0.1-0.3-0.3c-0.1-0.1-0.1-0.2-0.1-0.4c0-0.2,0-0.4,0-0.6c0.6-0.1,1.2-0.3,1.6-0.6c0.4-0.2,0.8-0.5,1.1-0.8
		c0.3-0.3,0.5-0.6,0.6-1c0.1-0.4,0.2-0.7,0.2-1.1c0-0.7-0.2-1.2-0.5-1.5c-0.3-0.3-0.8-0.5-1.5-0.5c-0.3,0-0.6,0.1-1,0.2
		c-0.3,0.2-0.6,0.4-0.9,0.6c-0.3,0.3-0.6,0.6-0.9,1c-0.3,0.4-0.5,0.8-0.7,1.2c-0.2,0.4-0.4,0.9-0.5,1.3c-0.1,0.2-0.1,0.4-0.1,0.6
		c-0.1,0.1-0.2,0.3-0.3,0.4c-0.3,0.4-0.7,0.7-0.9,0.9c-0.3,0.2-0.5,0.4-0.7,0.5c-0.2,0.1-0.3,0.2-0.4,0.2c0,0-0.1,0-0.1,0
		c0,0-0.1,0-0.1-0.1s0-0.1,0-0.2c0-0.1,0-0.1,0-0.2c0-0.1,0-0.2,0-0.4c0-0.2,0-0.4,0.1-0.6c0-0.2,0.1-0.5,0.1-0.7s0.1-0.5,0.1-0.8
		c0.1-0.1,0.3-0.2,0.4-0.3c0.1-0.1,0.3-0.3,0.4-0.4c0.1-0.2,0.2-0.3,0.3-0.5c0.1-0.2,0.1-0.4,0.1-0.6c0-0.1,0-0.2,0-0.3
		c0-0.1-0.1-0.2-0.1-0.3c-0.1-0.1-0.1-0.2-0.2-0.3c-0.1-0.1-0.2-0.1-0.3-0.2c0.1-0.5,0.2-0.9,0.4-1.3c0.1-0.4,0.2-0.7,0.3-0.9
		c0.1-0.2,0.2-0.5,0.3-0.6c0.1-0.2,0.2-0.3,0.4-0.4c0.2-0.1,0.3-0.2,0.5-0.2c0.2,0,0.4-0.1,0.7-0.1c0.1-0.1,0.1-0.1,0.1-0.2
		c0-0.1,0.1-0.1,0.1-0.2c0-0.1,0.1-0.2,0.1-0.2c0-0.1,0-0.2,0-0.2c0-0.2,0-0.5-0.1-0.7C42.3,8.3,42.1,8.1,42,8
		c-0.2-0.1-0.4-0.2-0.6-0.3c-0.2-0.1-0.5-0.1-0.7-0.1c-0.3,0-0.6,0.1-0.9,0.2c-0.3,0.1-0.5,0.3-0.8,0.5c-0.2,0.2-0.5,0.5-0.7,0.9
		c-0.2,0.4-0.4,0.9-0.6,1.4c-0.2,0.6-0.4,1.2-0.6,2c-0.2,0.8-0.4,1.6-0.5,2.6c-0.1,0-0.3,0.1-0.4,0.1c-0.1,0-0.3,0.1-0.4,0.1
		c-0.1,0-0.3,0.1-0.4,0.1c-0.1,0-0.3,0.1-0.4,0.1c0.1-0.2,0.1-0.5,0.2-0.8c0.1-0.3,0.1-0.6,0.2-1c0.1-0.3,0.1-0.7,0.2-1.1
		c0.1-0.4,0.1-0.7,0.1-1.1c0-0.3,0.1-0.7,0.1-1c0-0.3,0-0.6,0-0.9c0-0.6,0-1.1-0.1-1.5c-0.1-0.4-0.2-0.7-0.3-1
		c-0.1-0.3-0.3-0.4-0.5-0.6c-0.2-0.1-0.4-0.2-0.6-0.2c-0.2,0-0.3,0-0.5,0c-0.2,0-0.3,0.1-0.5,0.2c-0.2,0.1-0.3,0.2-0.5,0.3
		c-0.1,0.1-0.3,0.2-0.4,0.4c-0.1,0.1-0.2,0.3-0.3,0.5c-0.1,0.2-0.1,0.4-0.1,0.6c0,0.2,0,0.4,0.1,0.6c0.1,0.2,0.1,0.4,0.2,0.6
		c0.1,0.2,0.2,0.4,0.2,0.6c0.1,0.2,0.1,0.4,0.1,0.6c0,0.2,0,0.4,0,0.7c0,0.3,0,0.5-0.1,0.9c0,0.3-0.1,0.6-0.1,1c0,0.3-0.1,0.7-0.1,1
		c0,0.3-0.1,0.6-0.1,0.9c0,0.3-0.1,0.5-0.1,0.8c-0.3,0-0.6,0-0.8,0.1c-0.3,0-0.5,0-0.8,0.1c-0.3,0-0.5,0-0.8,0.1
		c-0.3,0-0.6,0-0.9,0.1c-0.7,0.1-1.4,0.2-1.9,0.3c-0.5,0.2-0.9,0.3-1.2,0.6c-0.3,0.2-0.5,0.5-0.7,0.9c-0.1,0.3-0.2,0.7-0.2,1.2
		c0,0.3,0,0.7,0.1,1c0.1,0.3,0.2,0.6,0.3,0.9c0.2,0.3,0.3,0.5,0.5,0.7c0.2,0.2,0.4,0.4,0.7,0.6c0.3,0.2,0.5,0.3,0.8,0.4
		c0.3,0.1,0.6,0.1,1,0.1c0.4,0,0.9-0.1,1.3-0.2c0.4-0.1,0.8-0.3,1.2-0.5c0.4-0.2,0.7-0.5,1.1-0.8c0.3-0.3,0.6-0.7,0.9-1.1
		s0.6-0.8,0.8-1.3c0.2-0.4,0.5-0.9,0.7-1.4c0.2,0,0.4-0.1,0.6-0.1c0.2,0,0.4-0.1,0.5-0.1c0.2,0,0.3-0.1,0.5-0.1
		c0.1,0,0.3-0.1,0.4-0.1C36.1,17.6,36,18,36,18.3c-0.1,0.4-0.1,0.7-0.2,1c0,0.3-0.1,0.6-0.1,0.8c0,0.2,0,0.4,0,0.5
		c0,0.3,0,0.5,0.1,0.7c0.1,0.2,0.1,0.3,0.3,0.5c0.1,0.1,0.3,0.2,0.4,0.3c0.2,0.1,0.4,0.1,0.6,0.1c0.3,0,0.6-0.1,0.9-0.2
		c0.3-0.1,0.6-0.3,1-0.4c0.3-0.2,0.6-0.4,1-0.6s0.6-0.5,0.9-0.8c0.2-0.2,0.4-0.4,0.6-0.6c0,0,0,0.1,0,0.1c0.1,0.4,0.3,0.7,0.5,1
		c0.2,0.3,0.5,0.5,0.8,0.6c0.3,0.1,0.7,0.2,1.2,0.2c0.3,0,0.6,0,0.9-0.1c0.3-0.1,0.6-0.2,1-0.4c0.3-0.2,0.6-0.3,0.9-0.5
		c0.3-0.2,0.6-0.4,0.9-0.7c0.1-0.1,0.3-0.3,0.4-0.4c0,0.1,0,0.3,0.1,0.4c0.1,0.3,0.2,0.6,0.4,0.8c0.2,0.2,0.4,0.4,0.6,0.5
		c0.2,0.1,0.5,0.2,0.8,0.2c0.2,0,0.3,0,0.5-0.1c0.2-0.1,0.4-0.2,0.6-0.4c0.2-0.2,0.4-0.4,0.6-0.7c0.2-0.3,0.3-0.6,0.5-1.1
		c0,0.1,0,0.3,0,0.4c0,0.1,0,0.2,0,0.3c0,0.3,0,0.6,0.1,0.8c0.1,0.2,0.2,0.4,0.3,0.5c0.1,0.1,0.3,0.2,0.4,0.2c0.2,0,0.4,0.1,0.6,0.1
		c0.2,0,0.4,0,0.6-0.1c0.2-0.1,0.5-0.2,0.7-0.4c0.2-0.2,0.5-0.3,0.7-0.5c0.3-0.2,0.5-0.4,0.7-0.6c0.1-0.1,0.1-0.1,0.2-0.2
		c0,0.2,0,0.4,0,0.6c0,0.2,0,0.5,0.1,0.6c0.1,0.2,0.1,0.3,0.3,0.5c0.1,0.1,0.3,0.2,0.5,0.3c0.2,0.1,0.4,0.1,0.7,0.1
		c0.2,0,0.5,0,0.8-0.1c0.3-0.1,0.5-0.2,0.8-0.4c0.3-0.2,0.6-0.3,0.8-0.5c0.3-0.2,0.5-0.4,0.8-0.6c0.2-0.2,0.4-0.4,0.6-0.6
		c0,0.4,0.1,0.7,0.2,1c0.1,0.3,0.3,0.6,0.5,0.8c0.2,0.2,0.5,0.4,0.8,0.5c0.3,0.1,0.6,0.1,1,0.1c0.3,0,0.6,0,0.8-0.1
		c0.3-0.1,0.6-0.2,0.9-0.4c0.3-0.2,0.6-0.4,0.9-0.6c0.3-0.2,0.5-0.5,0.8-0.7c0.1-0.1,0.2-0.2,0.2-0.2c0,0.1,0,0.2,0.1,0.4
		c0,0.2,0.1,0.3,0.2,0.5c0.1,0.1,0.2,0.3,0.3,0.4c0.1,0.1,0.2,0.2,0.4,0.3c0.1,0.1,0.3,0.2,0.5,0.2c0.2,0.1,0.3,0.1,0.5,0.1
		c0.2,0,0.4,0,0.5-0.1c0.2,0,0.3-0.1,0.4-0.2c0-0.4,0-0.9,0-1.3c0-0.4,0-0.8,0.1-1.2c0-0.4,0.1-0.7,0.1-1.1c0-0.3,0.1-0.7,0.1-1
		c0.3-0.2,0.5-0.4,0.7-0.5c0.2-0.1,0.4-0.2,0.6-0.2c0.1,0,0.2,0,0.2,0.1c0,0.1,0.1,0.1,0.1,0.2c0,0.1,0,0.2-0.1,0.3
		c0,0.2-0.1,0.3-0.2,0.6c-0.1,0.2-0.2,0.4-0.2,0.7c-0.1,0.3-0.2,0.5-0.2,0.8c-0.1,0.3-0.1,0.5-0.2,0.8c0,0.3-0.1,0.5-0.1,0.7
		c0,0.3,0,0.5,0.1,0.7c0.1,0.2,0.1,0.4,0.3,0.5c0.1,0.1,0.3,0.2,0.5,0.3c0.2,0.1,0.4,0.1,0.7,0.1c0.2,0,0.5,0,0.7-0.1
		c0.3-0.1,0.5-0.2,0.8-0.4c0.3-0.2,0.5-0.4,0.8-0.6c0.3-0.2,0.5-0.4,0.8-0.7c0.3-0.2,0.5-0.5,0.7-0.8c0.2-0.3,0.4-0.5,0.6-0.7
		c0.2-0.2,0.3-0.5,0.4-0.7c0.1-0.2,0.1-0.4,0.1-0.5C77.7,17.1,77.6,17,77.6,16.9z M44.1,15.6c0.1-0.2,0.2-0.5,0.2-0.6
		c0.1-0.2,0.2-0.3,0.3-0.4c0.1-0.1,0.2-0.1,0.2-0.1c0.1,0,0.2,0.1,0.3,0.2c0.1,0.1,0.1,0.3,0.1,0.5c0,0.1,0,0.3-0.1,0.4
		c0,0.1-0.1,0.3-0.2,0.4c-0.1,0.1-0.2,0.2-0.4,0.3c-0.2,0.1-0.4,0.2-0.6,0.2C44,16.1,44.1,15.9,44.1,15.6z M31,19
		c-0.2,0.3-0.3,0.5-0.5,0.8c-0.2,0.2-0.4,0.4-0.6,0.5c-0.2,0.1-0.4,0.2-0.6,0.2c-0.1,0-0.3,0-0.4-0.1c-0.1,0-0.3-0.1-0.4-0.2
		c-0.1-0.1-0.2-0.2-0.3-0.3c-0.1-0.1-0.2-0.2-0.3-0.3c-0.1-0.1-0.1-0.2-0.2-0.4c0-0.1-0.1-0.2-0.1-0.4c0-0.1,0-0.2,0.1-0.3
		c0-0.1,0.1-0.2,0.2-0.2c0.1-0.1,0.2-0.1,0.4-0.1c0.2,0,0.4-0.1,0.6-0.1c0.2,0,0.4,0,0.6,0c0.2,0,0.4,0,0.6,0c0.2,0,0.4,0,0.6,0
		c0.2,0,0.4,0,0.7-0.1C31.3,18.4,31.2,18.7,31,19z M52,18.2c-0.1,0.1-0.2,0.3-0.4,0.3c-0.1,0.1-0.3,0.1-0.4,0.1c-0.1,0-0.1,0-0.2,0
		c-0.1,0-0.1,0-0.2-0.1c0-0.1-0.1-0.1-0.1-0.2c0-0.1,0-0.2,0-0.4c0-0.4,0.1-0.7,0.2-1.1c0.1-0.4,0.2-0.7,0.4-1
		c0.2-0.3,0.4-0.6,0.6-0.9c0.2-0.3,0.5-0.5,0.7-0.6L52,18.2z"/>
	<g>
		<path class="st0" d="M47.8,26.1h-1.4l-0.2,0.3c0,0.1-0.1,0.1-0.1,0.2c0,0.1,0.1,0.1,0.2,0.2v0.1h-1.1v-0.1c0.1,0,0.1,0,0.2-0.1
			c0,0,0.1-0.1,0.1-0.2l1.1-2.3c0-0.1,0.1-0.2,0.1-0.2c0-0.1-0.1-0.1-0.2-0.2v-0.1h1.2v0.1c-0.1,0-0.2,0.1-0.2,0.2
			c0,0.1,0,0.1,0.1,0.2l1.2,2.2c0.1,0.1,0.1,0.2,0.2,0.2c0,0,0.1,0.1,0.2,0.1v0.1h-1.3v-0.1c0.1,0,0.2-0.1,0.2-0.2
			c0-0.1,0-0.1-0.1-0.2L47.8,26.1z M47.6,25.6l-0.5-1l-0.5,1H47.6z"/>
		<path class="st0" d="M50.3,24.8v1.8c0,0.1,0,0.1,0,0.1c0,0,0.1,0.1,0.1,0.1v0.1h-1v-0.1c0.1,0,0.1,0,0.1-0.1c0,0,0-0.1,0-0.1V24
			c0-0.1,0-0.1,0-0.1c0,0-0.1-0.1-0.1-0.1v-0.1h1.2v0.1c-0.1,0-0.1,0.1-0.1,0.1c0,0,0,0.1,0.1,0.2l1.7,1.7V24c0-0.1,0-0.1,0-0.1
			c0,0-0.1-0.1-0.1-0.1v-0.1h1v0.1c-0.1,0-0.1,0-0.1,0.1c0,0,0,0.1,0,0.1v2.5c0,0.1,0,0.1,0,0.1c0,0,0.1,0.1,0.1,0.1v0.1H52v-0.1
			c0.1,0,0.1-0.1,0.1-0.1c0,0,0-0.1,0-0.1c0,0-0.1-0.1-0.2-0.2L50.3,24.8z"/>
		<path class="st0" d="M53.8,26.6V24c0-0.1,0-0.1,0-0.1c0,0-0.1-0.1-0.1-0.1v-0.1h1.8c0.4,0,0.7,0,0.9,0.1c0.3,0.1,0.5,0.4,0.7,0.7
			c0.1,0.2,0.1,0.5,0.1,0.8c0,0.5-0.2,0.9-0.5,1.2c-0.1,0.1-0.3,0.2-0.5,0.3c-0.2,0.1-0.4,0.1-0.7,0.1h-1.8v-0.1
			c0.1,0,0.1,0,0.1-0.1C53.8,26.7,53.8,26.6,53.8,26.6z M54.6,26.3h0.8c0.4,0,0.6-0.1,0.8-0.2c0.2-0.2,0.3-0.4,0.3-0.7
			c0-0.3-0.1-0.6-0.3-0.7c-0.1-0.1-0.2-0.2-0.3-0.2c-0.1,0-0.3-0.1-0.5-0.1h-0.8V26.3z"/>
	</g>
	<g>
		<path class="st0" d="M26.3,57.6c0.5,0,0.9-0.2,1.2-0.6l0.7,0.7c-0.5,0.6-1.1,0.9-1.9,0.9c-0.7,0-1.3-0.2-1.8-0.7
			c-0.5-0.5-0.7-1-0.7-1.7c0-0.7,0.2-1.3,0.7-1.7c0.5-0.5,1-0.7,1.7-0.7c0.8,0,1.4,0.3,1.9,0.9l-0.6,0.7c-0.3-0.4-0.7-0.6-1.2-0.6
			c-0.4,0-0.7,0.1-1,0.4c-0.3,0.3-0.4,0.6-0.4,1c0,0.4,0.1,0.8,0.4,1C25.6,57.5,25.9,57.6,26.3,57.6z"/>
		<path class="st0" d="M37.8,53.9v0.9h-2.3v1h2.1v0.9h-2.1v1h2.4v0.9h-3.4v-4.6H37.8z"/>
		<path class="st0" d="M47.5,53.9h1v4.6h-1l-2.2-2.9v2.9h-1v-4.6h1l2.3,3V53.9z"/>
		<path class="st0" d="M57.1,54.8v3.8h-1v-3.8h-1.3v-0.9h3.7v0.9H57.1z"/>
		<path class="st0" d="M68,53.9v0.9h-2.3v1h2.1v0.9h-2.1v1h2.4v0.9h-3.4v-4.6H68z"/>
		<path class="st0" d="M78.2,55.4c0,0.7-0.3,1.2-0.9,1.4l1.2,1.7h-1.3l-1-1.5h-0.7v1.5h-1v-4.6h1.8c0.7,0,1.2,0.1,1.5,0.4
			C78.1,54.5,78.2,54.9,78.2,55.4z M77,56c0.1-0.1,0.2-0.3,0.2-0.5S77.1,55,77,54.9c-0.1-0.1-0.4-0.1-0.7-0.1h-0.8v1.4h0.8
			C76.6,56.1,76.9,56.1,77,56z"/>
	</g>
</g>
</svg>
